<?xml version="1.0" standalone="no"?><!DOCTYPE svg PUBLIC "-//W3C//DTD SVG 1.1//EN" "http://www.w3.org/Graphics/SVG/1.1/DTD/svg11.dtd"><svg t="1693398314769" class="icon" viewBox="0 0 1024 1024" version="1.1" xmlns="http://www.w3.org/2000/svg" p-id="1493" width="200" height="200" xmlns:xlink="http://www.w3.org/1999/xlink"><path d="M853.333333 981.333333a42.666667 42.666667 0 0 0-42.666666-42.666666H213.333333a42.666667 42.666667 0 1 0 0 85.333333h597.333334a42.666667 42.666667 0 0 0 42.666666-42.666667z" p-id="1494" fill="#13227a"></path><path d="M554.666667 981.333333v-170.666666h-85.333334v170.666666h85.333334z" p-id="1495" fill="#13227a"></path><path d="M1024 42.666667a42.666667 42.666667 0 0 0-42.666667-42.666667H42.666667a42.666667 42.666667 0 0 0-42.666667 42.666667v226.133333a42.666667 42.666667 0 0 0 85.333333 0V85.333333h853.333334v183.466667a42.666667 42.666667 0 1 0 85.333333 0V42.666667z m-85.333333 725.333333v-183.466667a42.666667 42.666667 0 1 1 85.333333 0V810.666667a42.666667 42.666667 0 0 1-42.666667 42.666666H42.666667a42.666667 42.666667 0 0 1-42.666667-42.666666v-226.133334a42.666667 42.666667 0 1 1 85.333333 0V768h853.333334z" p-id="1496" fill="#13227a"></path><path d="M567.168 396.501333a42.666667 42.666667 0 0 0 0 60.330667l128 128a42.666667 42.666667 0 0 0 60.330667-60.330667L657.664 426.666667l97.834667-97.834667a42.666667 42.666667 0 0 0-60.330667-60.330667l-128 128z" p-id="1497" fill="#13227a"></path><path d="M576 426.666667a42.666667 42.666667 0 0 0 42.666667 42.666666H981.333333a42.666667 42.666667 0 1 0 0-85.333333h-362.666666a42.666667 42.666667 0 0 0-42.666667 42.666667zM456.832 396.501333a42.666667 42.666667 0 0 1 0 60.330667l-128 128a42.666667 42.666667 0 0 1-60.330667-60.330667L366.336 426.666667 268.501333 328.832a42.666667 42.666667 0 0 1 60.330667-60.330667l128 128z" p-id="1498" fill="#13227a"></path><path d="M448 426.666667a42.666667 42.666667 0 0 1-42.666667 42.666666H42.666667a42.666667 42.666667 0 0 1 0-85.333333h362.666666a42.666667 42.666667 0 0 1 42.666667 42.666667z" p-id="1499" fill="#13227a"></path></svg>