<?xml version="1.0" standalone="no"?><!DOCTYPE svg PUBLIC "-//W3C//DTD SVG 1.1//EN" "http://www.w3.org/Graphics/SVG/1.1/DTD/svg11.dtd"><svg t="1726802910240" class="icon" viewBox="0 0 1024 1024" version="1.1" xmlns="http://www.w3.org/2000/svg" p-id="4465" xmlns:xlink="http://www.w3.org/1999/xlink" width="200" height="200"><path d="M0.131466 512V0h1024v434h-4.4c-4 0-6-4-16.8-31.6-23.6-60.8-113.2-283.4-115-285.6-1-1.2-5.6-2.8-10.4-3.4-4.6-0.6-18.2-3-30.4-5.2-68.8-12.6-112.8-20.8-152-28.2-24.2-4.6-47.2-8.8-51-9.4-7.6-1-3.8-4.2-65 51-15.6 14-19 16.4-25.4 16.4h-7.2l-9.4-28c-8.4-25.2-9.8-28-14-28-2.4 0-16.6-2.6-31.2-5.8-29.4-6.6-92-20.2-121.8-26.4-10.4-2.2-26.6-5.8-36-7.8-9.4-2.2-26-5.8-37-8-11-2.4-27.6-6-37-8-21.4-4.8-51.2-11.2-67.8-14.4l-12.6-2.4-5.4 6C140.531466 54 126.531466 69.8 98.931466 100.8 10.731466 199.8 10.131466 200.6 10.131466 207.2c0 3.4 0.8 11 2 17 1 6 4.8 28 8 48.8 3.4 21 7 42.6 8.2 48 1 5.6 18 108.2 37.8 228 19.8 120 36.6 221.2 37.4 225l1.6 7 46.6-0.8 46.4-0.8v50.6h93.2l5.8 35.6 6 35.4 44 15.4c101.6 35.4 237.8 82.6 260.6 90.2 21.6 7.4 24.4 8.8 24.4 12.8v4.6H0.131466V512zM648.131466 1019.4c0-3 2.2-5.8 6.6-8.2 11.4-6.8 334-199.4 347-207.4 7-4.4 14.8-7.8 17.6-7.8h4.8v228H648.131466v-4.6z" fill="#FFFEFF" p-id="4466"></path><path d="M971.331466 709.6c-24.2-45.4-50.6-94.8-58.6-109.8-10-18.6-14.6-29.4-14.6-34 0-6.2 4.8-11.6 57.6-64.4 47.4-47.2 58.4-57.4 63-57.4h5.4v348h-4.6c-3.8 0-10.4-11-48.2-82.4zM248.131466 734v-28h254v56H248.131466v-28zM542.331466 549.8c-19-4.8-44-17-59.8-28.8-11.2-8.4-12.4-10-12.4-16.6 0-6.2 2-9.8 12-20.8 6.4-7.6 14.2-16.8 17.2-20.6 7.8-10.2 15.6-9.6 33.2 2.2 20.8 13.8 35.6 19.2 55.6 20.4 15.4 0.6 17.6 0.4 23.8-4 9.6-6.6 11.4-10.2 8.6-16.6-3-6.6-17.6-13.2-47.2-21.2-56.6-15.2-80.6-30.6-88.2-57-4.8-16.4-4.2-53.6 1.2-67.8 8.6-23.2 27-40 52.4-48 13.6-4.4 19.2-5 44-5 21.4 0 32.2 1 43.8 4 18 4.4 41 14.8 53.2 23.8 12.4 9.2 11.8 13.6-7 41.2-14.4 21-16.2 22.8-22 23-3.8 0-11.2-2.8-18.4-7-28-16.4-54-21.4-67.6-13-8.2 5-10.4 12.6-5.4 18.2 6 6.6 16.2 11 44 18.8 45.4 12.6 63.2 21.2 77.6 37.2 10.8 12 15 24 16.6 46.8 3 47.2-20.4 80-66 92.2-16.2 4.4-70.4 3.4-89.2-1.4zM244.131466 409v-139h69.6c76.2 0.2 84.6 1 107.2 11.6 33.2 15.6 49.2 44 49.2 87.8 0 48.2-21.8 78.4-67 93.2-9.4 3-20 4-48.4 4.8l-36.6 1v79.6h-74v-139z m124.2-6c17.2-6.2 29.2-23.2 26.4-37.4-1.6-8.4-14-20.6-23.6-23.6-4.4-1.2-18.2-2.8-30.4-3.4l-22.6-1.2v68.6h20.8c13.6 0 23.8-1 29.4-3z" fill="#FFFEFF" p-id="4467"></path><path d="M286.131466 839c0-2.6-6.6-3-47-3H192.131466v-25c0-20.8-0.4-25-3-25s-3-34.6-3-300V186h656v656H564.131466c-245.8 0-278-0.4-278-3z m210-105v-22H254.131466v44h242v-22z m129.4-188.8c25.4-6.8 45.4-20.8 55.2-38.6 16-29.8 13.8-66.6-5.8-88.4-14.4-16-32.2-24.6-77.6-37.2-14.4-4-28.8-8.6-32-10.4-14.8-7.4-19.6-17-14.4-29.2 4.2-10.4 12.8-14.2 32.2-14 18 0.2 34.2 5.2 55.2 17.6 6.8 4 12.4 7 12.8 6.6 0.2-0.4 7.2-10.6 15.8-23l15.4-22.4-8.6-6.4c-34-25.2-90.4-35.2-129-22.8-36.4 11.6-56.6 38.8-56.6 76.2 0 47 19.8 65.4 91.2 84.6 32.8 8.8 44.2 14.4 48 23.2 9.2 22-13.2 36.2-49.4 31-17.8-2.6-34-9.2-52-21.2l-14.2-9.6-4 4.8c-2.2 2.8-10 12-17.2 20.6-7.4 8.6-13.6 16.4-14 17.4-1 2.8 23.8 20 40.6 28 24.4 12 41.4 15.6 72 15.8 16.2 0 29.8-0.8 36.4-2.6z m-313.4-43v-39.8l36.6-1c48-1.4 66.4-7 87.8-27 18-16.8 27.6-39.6 27.6-65 0-37.6-18-67.2-49.2-81.8-22.2-10.4-31.6-11.4-101.2-11.6h-63.6v266h62v-39.8z" p-id="4468"></path><path d="M312.131466 371.8v-40.2l28.6 1c15.6 0.4 32 2 36.4 3.4 25.2 7.8 33.2 41 14.8 61-11.4 12.4-20.6 15-53.2 15h-26.6v-40.2z" p-id="4469"></path><path d="M98.131466 783.2c-1-3-2-7-2-8.6 0-3.2-70.2-428.8-73.8-447.6-1.2-5.4-4.8-27-8.2-48-3.2-20.8-7-42.8-8-48.8-1.2-6-2-13.8-2-17.6 0-3.6-0.8-6.6-2-6.6-4.6 0-1.4-8.6 6.2-16.4 4.6-4.8 20.6-22.6 35.6-39.6s39.4-44.6 54.2-61.2C134.331466 48.4 160.331466 18.8 168.331466 8.6c4.2-5.2 8.4-8.4 11.4-8.4 2.4-0.2 4.4 0.6 4.4 1.4s6.6 2.8 14.6 4.2c14 2.6 32.8 6.4 67.4 14.2 9.4 2 26 5.6 37 8 11 2.2 27.6 5.8 37 8 9.4 2 25.6 5.6 36 7.8 29.8 6.2 92.4 19.8 121.8 26.4 14.6 3.2 28.8 5.8 31.2 5.8 4.2 0 5.6 2.8 14 28.2 7 20.8 10.2 27.8 12.2 27 3-1.2 4 6.2 1.2 9.8-1.4 2-24.2 22.2-45.6 40.6l-12.4 10.4H192.131466v594h-12.6c-7 0-27.8 0.6-46 1.4l-33.2 1.2-2.2-5.4z" fill="#FB318D" p-id="4470"></path><path d="M626.131466 1021.8c-1.6-1-21.6-8.2-44.4-16-41-14-41.6-14.4-41.6-19.8v-5.8l23.6-0.4c12.8-0.2 29.2-0.4 36.4-0.4 52.6 0.2 64.6 0.8 68.6 3 2.4 1.2 8.4 2 13.2 1.8s11.2 0.2 14.4 0.8c11 2.4 6.8 7.4-20.6 23.6-23.8 14-27.2 15.4-36.4 15.2-5.6 0-11.6-0.8-13.2-2zM710.131466 983.4c0-11.2 2-13.4 11.2-13.4 12 0 11.4 4-1.2 11.8-9.8 6-10 6-10 1.6zM518.531466 984c-3.6-1.6-4.6-3.2-4-7.4 0.6-4.8 1.6-5.6 8.2-6.2l7.6-0.6-0.6 7.6c-0.6 8.2-3.4 9.8-11.2 6.6zM504.731466 979.6c-5-1.6-6.6-3.4-6.6-6.8 0-4.2 1-4.8 7-4.8 6.6 0 7 0.4 7 7 0 3.8-0.2 7-0.4 6.8-0.4-0.2-3.6-1.2-7-2.2zM984.131466 813.4c-6.8-4.2-8.6-4.4-77.4-4.4h-70.6V192h-173c-137.2 0-173-0.6-173-2.4 0.2-1.4 5-6.6 11-11.4s16.6-13.6 23.4-19.8c22.8-20 40.2-35.6 69.4-61.6 37.8-34 41.4-36.8 42.8-35.4 0.8 0.6 5.6 2 10.8 2.8 5.4 0.8 29.4 5.2 53.6 9.8 39.6 7.4 89 16.6 152 28.2 12.2 2.2 25.8 4.6 30.4 5.2 4.8 0.6 9.4 2.2 10.4 3.4s6.2 13.4 11.6 27.2c29.6 74.6 115 287.4 116.6 290.4 1.2 2 2 6.6 2 10.2 0 6-5.4 12-60.2 66.8l-60.4 60 18.2 33.8c9.8 18.6 36.2 68 58.4 109.8s41.2 76.4 42.2 76.6c2.4 1 2.4 16.4-0.2 16.4-1 0-7.6 3.6-14.4 8-7 4.4-13.4 7.8-14.6 7.8-1 0-5.2-2-9-4.4z" fill="#9F4BF1" p-id="4471"></path><path d="M530.931466 988.4c-20.4-7.2-26.2-10-25.4-12.4s0.6-2.4-1-0.4c-1.8 2.8-19.6-3-161.4-52.6l-46-16-5.4-31c-3-17-5.4-33-5.4-35.4l-0.2-4.6h550v-31.6l13.2-1.4c7.2-0.8 40.2-1.2 73.6-0.6 55.6 0.6 61 1 67.2 4.6 3.6 2.2 7 5 7.4 6.2s-60.4 38.8-135 83.4c-103.2 61.8-136.8 81-140 80-3.2-0.8-4.2-0.4-3.4 1.8 1.2 3.2-21.2 18.6-23 15.6s-12-4.6-14.8-2.2c-1.4 1.2-4.4 1.6-6.2 0.8-2.8-1-3.4-0.6-2.4 2 0.8 2.2 0.2 3.4-1.6 3.4-1.6 0-3-1.6-3-3.8 0-6-9.6-8.4-31.2-8.2-11 0.2-30.2 0.4-42.8 0.6-36.6 0-42 0.4-42 2 0 0.8 1 1.4 2 1.4 1.2 0 2 1.4 2 3.2 0 1.6 1 2.4 2 1.8 1.2-0.6 2-0.2 2 0.8 0 2.8 1 3.2-29.2-7.4z" fill="#9F4BF1" p-id="4472"></path></svg>