<svg t="1706167220212" class="icon" viewBox="0 0 1024 1024" version="1.1" xmlns="http://www.w3.org/2000/svg" p-id="2539" id="mx_n_1706167220214" width="200" height="200" style="background:#1a2b34;"><path d="M694.848 274.272h36.576a18.272 18.272 0 0 1 18.272 18.272 18.272 18.272 0 0 1-18.272 18.272h-36.576a18.272 18.272 0 0 1-18.272-18.272 18.272 18.272 0 0 1 18.272-18.272z" fill="#56B3B4" p-id="2540"></path><path d="M146.272 859.424h182.848a18.272 18.272 0 0 1 18.272 18.272 18.272 18.272 0 0 1-18.272 18.272H146.272a18.272 18.272 0 0 1-18.272-18.24 18.272 18.272 0 0 1 18.272-18.304z" fill="#EA5E5E" p-id="2541"></path><path d="M585.152 566.848h109.728a18.272 18.272 0 0 1 18.272 18.272 18.272 18.272 0 0 1-18.272 18.272h-109.728a18.272 18.272 0 0 1-18.272-18.272 18.272 18.272 0 0 1 18.272-18.272z" fill="#c693c6" p-id="2542" data-spm-anchor-id="a313x.search_index.0.i21.abfa3a814pqdmG" class=""></path><path d="M365.728 566.848H512a18.272 18.272 0 0 1 18.272 18.272 18.272 18.272 0 0 1-18.272 18.272h-146.272a18.272 18.272 0 0 1-18.272-18.272 18.272 18.272 0 0 1 18.272-18.272z" fill="#EA5E5E" p-id="2543"></path><path d="M146.272 566.848h146.304a18.272 18.272 0 0 1 18.272 18.272 18.272 18.272 0 0 1-18.272 18.272H146.272a18.272 18.272 0 0 1-18.272-18.24 18.272 18.272 0 0 1 18.272-18.304z" fill="#56B3B4" p-id="2544"></path><path d="M146.272 713.152h182.848a18.272 18.272 0 0 1 18.272 18.272 18.272 18.272 0 0 1-18.272 18.272H146.272A18.272 18.272 0 0 1 128 731.424a18.272 18.272 0 0 1 18.272-18.272zM146.272 420.576h182.848a18.272 18.272 0 0 1 18.272 18.272 18.272 18.272 0 0 1-18.272 18.272H146.272A18.272 18.272 0 0 1 128 438.848a18.272 18.272 0 0 1 18.272-18.272z" fill="#c693c6" p-id="2545" data-spm-anchor-id="a313x.search_index.0.i18.abfa3a814pqdmG" class=""></path><path d="M329.152 201.152h365.696a18.272 18.272 0 0 1 18.272 18.272 18.272 18.272 0 0 1-18.272 18.272H329.152a18.272 18.272 0 0 1-18.272-18.272 18.272 18.272 0 0 1 18.272-18.272z" fill="#fbbf47" p-id="2546" data-spm-anchor-id="a313x.search_index.0.i22.abfa3a814pqdmG" class="selected"></path><path d="M146.272 201.152H256a18.272 18.272 0 0 1 18.272 18.272 18.272 18.272 0 0 1-18.272 18.304H146.272A18.272 18.272 0 0 1 128 219.424a18.272 18.272 0 0 1 18.272-18.272z" fill="#EA5E5E" p-id="2547"></path><path d="M292.576 786.272h36.576a18.272 18.272 0 0 1 18.272 18.272 18.272 18.272 0 0 1-18.272 18.272H292.576a18.272 18.272 0 0 1-18.272-18.272 18.272 18.272 0 0 1 18.272-18.272z" fill="#fbbf47" p-id="2548" data-spm-anchor-id="a313x.search_index.0.i27.abfa3a814pqdmG" class="selected"></path><path d="M292.576 347.424h36.576a18.272 18.272 0 0 1 18.272 18.272 18.272 18.272 0 0 1-18.272 18.272H292.576a18.272 18.272 0 0 1-18.272-18.272 18.272 18.272 0 0 1 18.272-18.272zM146.272 786.272h73.152a18.272 18.272 0 0 1 18.272 18.272 18.272 18.272 0 0 1-18.272 18.272H146.272a18.272 18.272 0 0 1-18.272-18.24 18.272 18.272 0 0 1 18.272-18.304z" fill="#56B3B4" p-id="2549"></path><path d="M146.272 347.424h73.152a18.272 18.272 0 0 1 18.272 18.272 18.272 18.272 0 0 1-18.272 18.304H146.272A18.272 18.272 0 0 1 128 365.728a18.272 18.272 0 0 1 18.272-18.304z" fill="#fbbf47" p-id="2550" data-spm-anchor-id="a313x.search_index.0.i23.abfa3a814pqdmG" class="selected"></path><path d="M621.728 786.272h36.576a18.272 18.272 0 0 1 18.272 18.272 18.272 18.272 0 0 1-18.272 18.272h-36.576a18.272 18.272 0 0 1-18.272-18.272 18.272 18.272 0 0 1 18.272-18.272zM402.272 786.272h146.272a18.272 18.272 0 0 1 18.272 18.272 18.272 18.272 0 0 1-18.272 18.272h-146.272a18.272 18.272 0 0 1-18.272-18.24 18.272 18.272 0 0 1 18.272-18.304zM731.424 786.272h146.272a18.272 18.272 0 0 1 18.272 18.272 18.272 18.272 0 0 1-18.272 18.272h-146.272a18.272 18.272 0 0 1-18.272-18.272 18.272 18.272 0 0 1 18.272-18.272z" fill="#4D616E" p-id="2551"></path><path d="M438.848 493.728h292.576a18.272 18.272 0 0 1 18.272 18.272 18.272 18.272 0 0 1-18.272 18.272h-292.576a18.272 18.272 0 0 1-18.272-18.272 18.272 18.272 0 0 1 18.272-18.272z" fill="#56B3B4" p-id="2552"></path><path d="M256 493.728h109.728A18.272 18.272 0 0 1 384 512a18.272 18.272 0 0 1-18.272 18.272H256A18.272 18.272 0 0 1 237.728 512 18.272 18.272 0 0 1 256 493.728z" fill="#fbbf47" p-id="2553" data-spm-anchor-id="a313x.search_index.0.i25.abfa3a814pqdmG" class="selected"></path><path d="M146.272 493.728h36.576a18.272 18.272 0 0 1 18.304 18.272 18.272 18.272 0 0 1-18.272 18.272H146.272A18.272 18.272 0 0 1 128 512a18.272 18.272 0 0 1 18.272-18.272z" fill="#EA5E5E" p-id="2554"></path><path d="M475.424 274.272h146.272a18.272 18.272 0 0 1 18.304 18.304 18.272 18.272 0 0 1-18.272 18.272h-146.304a18.272 18.272 0 0 1-18.272-18.272 18.272 18.272 0 0 1 18.272-18.304z" fill="#c693c6" p-id="2555" data-spm-anchor-id="a313x.search_index.0.i20.abfa3a814pqdmG" class=""></path><path d="M146.272 274.272h256a18.272 18.272 0 0 1 18.272 18.272 18.272 18.272 0 0 1-18.272 18.272h-256A18.272 18.272 0 0 1 128 292.576a18.272 18.272 0 0 1 18.272-18.304z" fill="#56B3B4" p-id="2556"></path><path d="M256 640h329.152a18.272 18.272 0 0 1 18.272 18.272 18.272 18.272 0 0 1-18.272 18.272H256a18.272 18.272 0 0 1-18.272-18.272A18.272 18.272 0 0 1 256 640z" fill="#fbbf47" p-id="2557" data-spm-anchor-id="a313x.search_index.0.i26.abfa3a814pqdmG" class="selected"></path><path d="M146.272 640h36.576a18.272 18.272 0 0 1 18.272 18.272 18.272 18.272 0 0 1-18.272 18.272H146.272A18.272 18.272 0 0 1 128 658.272 18.272 18.272 0 0 1 146.272 640z" fill="#c693c6" p-id="2558" data-spm-anchor-id="a313x.search_index.0.i19.abfa3a814pqdmG" class=""></path><path d="M585.152 347.424H768a18.272 18.272 0 0 1 18.272 18.272A18.272 18.272 0 0 1 768 384h-182.848a18.272 18.272 0 0 1-18.272-18.272 18.272 18.272 0 0 1 18.272-18.304z" fill="#EA5E5E" p-id="2559"></path><path d="M585.152 420.576H768a18.272 18.272 0 0 1 18.272 18.272 18.272 18.272 0 0 1-18.272 18.272h-182.848a18.272 18.272 0 0 1-18.272-18.272 18.272 18.272 0 0 1 18.272-18.272z" fill="#fbbf47" p-id="2560" data-spm-anchor-id="a313x.search_index.0.i24.abfa3a814pqdmG" class="selected"></path><path d="M146.272 128h438.88a18.272 18.272 0 0 1 18.272 18.272 18.272 18.272 0 0 1-18.272 18.272H146.272A18.272 18.272 0 0 1 128 146.272 18.272 18.272 0 0 1 146.272 128z" fill="#56B3B4" p-id="2561"></path><path d="M658.272 128h219.424a18.272 18.272 0 0 1 18.304 18.272 18.272 18.272 0 0 1-18.272 18.272h-219.456A18.272 18.272 0 0 1 640 146.272 18.272 18.272 0 0 1 658.272 128zM658.272 640h73.152a18.272 18.272 0 0 1 18.272 18.272 18.272 18.272 0 0 1-18.272 18.272h-73.152a18.272 18.272 0 0 1-18.272-18.272 18.272 18.272 0 0 1 18.272-18.272zM804.576 640h73.152a18.272 18.272 0 0 1 18.272 18.272 18.272 18.272 0 0 1-18.272 18.272h-73.152a18.272 18.272 0 0 1-18.272-18.272 18.272 18.272 0 0 1 18.272-18.272zM768 566.848h109.728a18.272 18.272 0 0 1 18.272 18.272 18.272 18.272 0 0 1-18.272 18.272H768a18.272 18.272 0 0 1-18.272-18.272 18.272 18.272 0 0 1 18.272-18.272zM768 201.152h109.728a18.272 18.272 0 0 1 18.272 18.272 18.272 18.272 0 0 1-18.272 18.272H768a18.272 18.272 0 0 1-18.272-18.272 18.272 18.272 0 0 1 18.272-18.272zM804.576 493.728h73.152A18.272 18.272 0 0 1 896 512a18.272 18.272 0 0 1-18.272 18.272h-73.152a18.272 18.272 0 0 1-18.304-18.272 18.272 18.272 0 0 1 18.304-18.272zM804.576 274.272h73.152a18.272 18.272 0 0 1 18.272 18.304 18.272 18.272 0 0 1-18.272 18.272h-73.152a18.272 18.272 0 0 1-18.272-18.272 18.272 18.272 0 0 1 18.272-18.304zM841.152 347.424h36.576a18.272 18.272 0 0 1 18.272 18.272 18.272 18.272 0 0 1-18.272 18.272h-36.576a18.272 18.272 0 0 1-18.272-18.272 18.272 18.272 0 0 1 18.272-18.272zM841.152 420.576h36.576a18.272 18.272 0 0 1 18.272 18.272 18.272 18.272 0 0 1-18.272 18.272h-36.576a18.272 18.272 0 0 1-18.272-18.272 18.272 18.272 0 0 1 18.272-18.272zM548.576 713.152h329.152a18.272 18.272 0 0 1 18.272 18.272 18.272 18.272 0 0 1-18.272 18.272H548.576a18.272 18.272 0 0 1-18.272-18.272 18.272 18.272 0 0 1 18.272-18.272zM402.272 713.152h73.152a18.272 18.272 0 0 1 18.272 18.272 18.272 18.272 0 0 1-18.272 18.272h-73.152a18.272 18.272 0 0 1-18.272-18.272 18.272 18.272 0 0 1 18.272-18.272zM694.848 859.424h182.848a18.272 18.272 0 0 1 18.272 18.272 18.272 18.272 0 0 1-18.272 18.272h-182.848a18.272 18.272 0 0 1-18.272-18.272 18.272 18.272 0 0 1 18.272-18.272zM402.272 859.424h219.424a18.272 18.272 0 0 1 18.272 18.272 18.272 18.272 0 0 1-18.272 18.272h-219.424a18.272 18.272 0 0 1-18.272-18.24 18.272 18.272 0 0 1 18.272-18.304zM402.272 347.424H512a18.272 18.272 0 0 1 18.272 18.272A18.272 18.272 0 0 1 512 384h-109.728a18.272 18.272 0 0 1-18.272-18.272 18.272 18.272 0 0 1 18.272-18.304zM402.272 420.576H512a18.272 18.272 0 0 1 18.272 18.272 18.272 18.272 0 0 1-18.272 18.272h-109.728a18.272 18.272 0 0 1-18.272-18.272 18.272 18.272 0 0 1 18.272-18.272z" fill="#4D616E" p-id="2562"></path></svg>