<?xml version="1.0" standalone="no"?><!DOCTYPE svg PUBLIC "-//W3C//DTD SVG 1.1//EN" "http://www.w3.org/Graphics/SVG/1.1/DTD/svg11.dtd"><svg t="1731290817998" class="icon" viewBox="0 0 1024 1024" version="1.1" xmlns="http://www.w3.org/2000/svg" p-id="6597" xmlns:xlink="http://www.w3.org/1999/xlink" width="200" height="200"><path d="M875.22314083 66.95867744H151.25619834C104.14876045 66.95867744 66.95867744 104.14876045 66.95867744 151.25619834v723.96694248c0 47.10743789 37.19008301 84.29752089 84.2975209 84.29752002h723.96694249c47.10743789 0 84.29752089-37.19008301 84.29752001-84.29752002V151.25619834c0-47.10743789-39.66942128-84.29752089-84.29752001-84.2975209z m-59.50413282 768.59504121h-12.39669405c-22.31404981 0-220.66115713-4.95867744-287.60330566-4.95867743-71.90082685 0-292.5619831 4.95867744-295.04132226 4.95867743h-12.39669404v-42.14875957l-2.47933917-42.14876044h12.39669405c2.47933916 0 156.19834687-7.4380166 250.41322353-9.91735577v-91.7355375c-101.65289238-4.95867744-173.55371924-32.23140469-220.66115713-79.33884258-71.90082685-74.38016513-66.94214854-180.99173584-64.46281025-295.04132226V242.99173584l89.25619833 2.47933828v34.71074385c-2.47933916 96.69421494-7.4380166 180.99173584 39.66942218 228.09917373 29.75206641 29.75206641 79.33884258 47.10743789 156.19834687 52.06611533V198.36363623H557.86776875V557.86776875c74.38016513-4.95867744 126.44628135-22.31404981 156.19834687-52.06611621 44.62809961-47.10743789 42.14876045-131.40495879 39.66942129-228.09917285V242.99173584l89.25619835-2.47933916v32.23140468c4.95867744 114.04958643 7.4380166 220.66115713-64.46280938 295.04132227-47.10743789 47.10743789-119.00826474 74.38016513-220.66115713 79.33884346v91.73553662c91.7355375 2.47933916 247.93388437 9.91735576 250.41322266 9.91735577h12.39669492l-2.47933916 42.14876044-2.47933916 44.62809873z" p-id="6598" fill="#000000"></path></svg>