<?xml version="1.0" standalone="no"?><!DOCTYPE svg PUBLIC "-//W3C//DTD SVG 1.1//EN" "http://www.w3.org/Graphics/SVG/1.1/DTD/svg11.dtd"><svg t="1685544383971" class="icon" viewBox="0 0 1024 1024" version="1.1" xmlns="http://www.w3.org/2000/svg" p-id="44439" xmlns:xlink="http://www.w3.org/1999/xlink" width="600" height="600"><path d="M98.235662 884.334515h699.715537v44.09927H98.235662z" fill="#107FCE" p-id="44440"></path><path d="M98.235662 840.342023h699.715537v44.09927H98.235662z" fill="#1180CE" p-id="44441"></path><path d="M98.235662 796.242753h699.715537V840.342023H98.235662z" fill="#1281CF" p-id="44442"></path><path d="M98.235662 752.143483h699.715537v44.09927H98.235662z" fill="#1481CF" p-id="44443"></path><path d="M98.235662 708.044213h699.715537v44.09927H98.235662z" fill="#1582D0" p-id="44444"></path><path d="M98.235662 663.944943h699.715537v44.09927H98.235662zM98.235662 659.994161h699.715537v3.844004H98.235662z" fill="#1683D0" p-id="44445"></path><path d="M98.235662 656.150156h699.715537v3.844005H98.235662z" fill="#1784D0" p-id="44446"></path><path d="M98.235662 652.199374h699.715537v3.844005H98.235662z" fill="#1884D1" p-id="44447"></path><path d="M98.235662 648.35537h699.715537v3.844004H98.235662z" fill="#1985D1" p-id="44448"></path><path d="M98.235662 644.404588h699.715537v3.844004H98.235662z" fill="#1A86D1" p-id="44449"></path><path d="M98.235662 640.560584h699.715537v3.844004H98.235662z" fill="#1B87D2" p-id="44450"></path><path d="M98.235662 636.609802h699.715537v3.844004H98.235662z" fill="#1C87D2" p-id="44451"></path><path d="M98.235662 632.765798h699.715537v3.844004H98.235662z" fill="#1D88D2" p-id="44452"></path><path d="M98.235662 628.815016h699.715537v3.844004H98.235662z" fill="#1F89D2" p-id="44453"></path><path d="M98.235662 624.971011h699.715537v3.844005H98.235662z" fill="#208AD3" p-id="44454"></path><path d="M98.235662 621.020229h699.715537v3.844005H98.235662z" fill="#218AD3" p-id="44455"></path><path d="M98.235662 617.176225h699.715537v3.844004H98.235662z" fill="#228BD3" p-id="44456"></path><path d="M98.235662 613.225443h699.715537v3.844004H98.235662z" fill="#238CD4" p-id="44457"></path><path d="M98.235662 609.381439h699.715537v3.844004H98.235662z" fill="#248CD4" p-id="44458"></path><path d="M98.235662 605.430657h699.715537v3.844004H98.235662z" fill="#258DD4" p-id="44459"></path><path d="M98.235662 601.586653h699.715537v3.844004H98.235662z" fill="#268ED5" p-id="44460"></path><path d="M98.235662 597.635871h699.715537v3.844004H98.235662z" fill="#278FD5" p-id="44461"></path><path d="M98.235662 593.791867h699.715537v3.844004H98.235662z" fill="#288FD5" p-id="44462"></path><path d="M98.235662 589.841084h699.715537v3.844005H98.235662z" fill="#2990D6" p-id="44463"></path><path d="M98.235662 585.99708h699.715537v3.844004H98.235662z" fill="#2A91D6" p-id="44464"></path><path d="M98.235662 582.046298h699.715537v3.844004H98.235662z" fill="#2B91D6" p-id="44465"></path><path d="M98.235662 578.202294h699.715537v3.844004H98.235662z" fill="#2C92D7" p-id="44466"></path><path d="M98.235662 574.251512h699.715537v3.844004H98.235662z" fill="#2D93D7" p-id="44467"></path><path d="M98.235662 570.407508h699.715537v3.844004H98.235662z" fill="#2E94D7" p-id="44468"></path><path d="M98.235662 566.456726h699.715537v3.844004H98.235662z" fill="#2F94D7" p-id="44469"></path><path d="M98.235662 562.612722h699.715537v3.844004H98.235662z" fill="#3095D8" p-id="44470"></path><path d="M98.235662 558.66194h699.715537v3.844004H98.235662z" fill="#3296D8" p-id="44471"></path><path d="M98.235662 554.817935h699.715537v3.844005H98.235662z" fill="#3396D8" p-id="44472"></path><path d="M98.235662 550.867153h699.715537v3.844004H98.235662z" fill="#3497D9" p-id="44473"></path><path d="M98.235662 547.023149h699.715537v3.844004H98.235662z" fill="#3598D9" p-id="44474"></path><path d="M98.235662 543.072367h699.715537v3.844004H98.235662z" fill="#3699D9" p-id="44475"></path><path d="M98.235662 539.228363h699.715537v3.844004H98.235662z" fill="#3799DA" p-id="44476"></path><path d="M98.235662 535.277581h699.715537v3.844004H98.235662z" fill="#389ADA" p-id="44477"></path><path d="M98.235662 531.433577h699.715537v3.844004H98.235662z" fill="#399BDA" p-id="44478"></path><path d="M98.235662 527.482795h699.715537v3.844004H98.235662z" fill="#3A9BDA" p-id="44479"></path><path d="M98.235662 523.63879h699.715537v3.844005H98.235662z" fill="#3B9CDB" p-id="44480"></path><path d="M98.235662 519.688008h699.715537v3.844005H98.235662z" fill="#3C9DDB" p-id="44481"></path><path d="M98.235662 515.844004h699.715537v3.844004H98.235662z" fill="#3D9EDB" p-id="44482"></path><path d="M98.235662 511.893222h699.715537v3.844004H98.235662z" fill="#3E9EDC" p-id="44483"></path><path d="M98.235662 508.049218h699.715537v3.844004H98.235662z" fill="#3F9FDC" p-id="44484"></path><path d="M98.235662 504.098436h699.715537v3.844004H98.235662z" fill="#40A0DC" p-id="44485"></path><path d="M98.235662 500.254432h699.715537v3.844004H98.235662z" fill="#41A0DD" p-id="44486"></path><path d="M98.235662 496.30365h699.715537v3.844004H98.235662z" fill="#42A1DD" p-id="44487"></path><path d="M98.235662 492.459645h699.715537v3.844005H98.235662z" fill="#43A2DD" p-id="44488"></path><path d="M98.235662 488.508863h699.715537v3.844005H98.235662z" fill="#44A3DE" p-id="44489"></path><path d="M98.235662 484.664859h699.715537v3.844004H98.235662z" fill="#45A3DE" p-id="44490"></path><path d="M98.235662 480.714077h699.715537v3.844004H98.235662z" fill="#46A4DE" p-id="44491"></path><path d="M98.235662 476.870073h699.715537v3.844004H98.235662z" fill="#47A5DE" p-id="44492"></path><path d="M98.235662 472.919291h699.715537v3.844004H98.235662z" fill="#48A5DF" p-id="44493"></path><path d="M98.235662 469.075287h699.715537v3.844004H98.235662z" fill="#4AA6DF" p-id="44494"></path><path d="M98.235662 465.124505h699.715537v3.844004H98.235662z" fill="#4BA7DF" p-id="44495"></path><path d="M98.235662 461.280501h699.715537v3.844004H98.235662z" fill="#4CA8E0" p-id="44496"></path><path d="M98.235662 457.329718h699.715537v3.844005H98.235662z" fill="#4DA8E0" p-id="44497"></path><path d="M98.235662 453.485714h699.715537v3.844004H98.235662z" fill="#4EA9E0" p-id="44498"></path><path d="M98.235662 449.534932h699.715537v3.844004H98.235662z" fill="#4FAAE1" p-id="44499"></path><path d="M98.235662 445.690928h699.715537v3.844004H98.235662z" fill="#50AAE1" p-id="44500"></path><path d="M98.235662 441.740146h699.715537v3.844004H98.235662z" fill="#51ABE1" p-id="44501"></path><path d="M98.235662 437.896142h699.715537v3.844004H98.235662z" fill="#52ACE1" p-id="44502"></path><path d="M98.235662 433.94536h699.715537v3.844004H98.235662z" fill="#53ACE2" p-id="44503"></path><path d="M98.235662 430.101356h699.715537v3.844004H98.235662z" fill="#54ADE2" p-id="44504"></path><path d="M98.235662 426.150574h699.715537v3.844004H98.235662z" fill="#55AEE2" p-id="44505"></path><path d="M98.235662 422.306569h699.715537v3.844005H98.235662z" fill="#56AEE3" p-id="44506"></path><path d="M98.235662 418.355787h699.715537v3.844004H98.235662z" fill="#57AFE3" p-id="44507"></path><path d="M98.235662 414.511783h699.715537v3.844004H98.235662z" fill="#58B0E3" p-id="44508"></path><path d="M98.235662 410.561001h699.715537v3.844004H98.235662z" fill="#59B1E4" p-id="44509"></path><path d="M98.235662 406.716997h699.715537v3.844004H98.235662z" fill="#5AB1E4" p-id="44510"></path><path d="M98.235662 402.766215h699.715537v3.844004H98.235662z" fill="#5BB2E4" p-id="44511"></path><path d="M98.235662 398.922211h699.715537v3.844004H98.235662z" fill="#5CB3E4" p-id="44512"></path><path d="M98.235662 394.971429h699.715537v3.844004H98.235662z" fill="#5DB3E5" p-id="44513"></path><path d="M98.235662 391.127424h699.715537v3.844005H98.235662z" fill="#5EB4E5" p-id="44514"></path><path d="M98.235662 387.176642h699.715537v3.844005H98.235662z" fill="#5FB5E5" p-id="44515"></path><path d="M98.235662 383.332638h699.715537v3.844004H98.235662z" fill="#60B5E6" p-id="44516"></path><path d="M98.235662 379.381856h699.715537v3.844004H98.235662z" fill="#61B6E6" p-id="44517"></path><path d="M98.235662 375.537852h699.715537v3.844004H98.235662z" fill="#62B7E6" p-id="44518"></path><path d="M98.235662 371.58707h699.715537v3.844004H98.235662z" fill="#63B7E6" p-id="44519"></path><path d="M98.235662 367.743066h699.715537v3.844004H98.235662z" fill="#64B8E7" p-id="44520"></path><path d="M98.235662 363.792284h699.715537v3.844004H98.235662z" fill="#65B9E7" p-id="44521"></path><path d="M98.235662 359.948279h699.715537v3.844005H98.235662z" fill="#66B9E7" p-id="44522"></path><path d="M98.235662 355.997497h699.715537v3.844005H98.235662z" fill="#67BAE8" p-id="44523"></path><path d="M98.235662 352.153493h699.715537v3.844004H98.235662z" fill="#68BBE8" p-id="44524"></path><path d="M98.235662 348.202711h699.715537v3.844004H98.235662z" fill="#69BCE8" p-id="44525"></path><path d="M98.235662 344.358707h699.715537v3.844004H98.235662z" fill="#6ABCE9" p-id="44526"></path><path d="M98.235662 340.407925h699.715537v3.844004H98.235662z" fill="#6BBDE9" p-id="44527"></path><path d="M98.235662 336.563921h699.715537v3.844004H98.235662z" fill="#6CBEE9" p-id="44528"></path><path d="M98.235662 332.613139h699.715537v3.844004H98.235662z" fill="#6DBEE9" p-id="44529"></path><path d="M98.235662 328.769135h699.715537v3.844004H98.235662z" fill="#6EBFEA" p-id="44530"></path><path d="M98.235662 324.818352h699.715537v3.844005H98.235662z" fill="#6FC0EA" p-id="44531"></path><path d="M98.235662 320.974348h699.715537v3.844004H98.235662z" fill="#70C0EA" p-id="44532"></path><path d="M98.235662 317.023566h699.715537v3.844004H98.235662z" fill="#71C1EB" p-id="44533"></path><path d="M98.235662 313.179562h699.715537v3.844004H98.235662z" fill="#72C2EB" p-id="44534"></path><path d="M98.235662 309.22878h699.715537v3.844004H98.235662z" fill="#73C2EB" p-id="44535"></path><path d="M98.235662 305.384776h699.715537v3.844004H98.235662z" fill="#74C3EB" p-id="44536"></path><path d="M98.235662 301.433994h699.715537v3.844004H98.235662z" fill="#75C4EC" p-id="44537"></path><path d="M98.235662 297.58999h699.715537v3.844004H98.235662z" fill="#76C4EC" p-id="44538"></path><path d="M98.235662 293.639208h699.715537v3.844004H98.235662z" fill="#77C5EC" p-id="44539"></path><path d="M98.235662 289.795203h699.715537v3.844005H98.235662z" fill="#78C6ED" p-id="44540"></path><path d="M98.235662 285.844421h699.715537v3.844004H98.235662z" fill="#79C6ED" p-id="44541"></path><path d="M98.235662 282.000417h699.715537v3.844004H98.235662zM98.235662 278.049635h699.715537v3.844004H98.235662z" fill="#7AC7ED" p-id="44542"></path><path d="M98.235662 274.205631h699.715537v3.844004H98.235662z" fill="#7BC8EE" p-id="44543"></path><path d="M98.235662 270.254849h699.715537v3.844004H98.235662z" fill="#7CC9EE" p-id="44544"></path><path d="M98.235662 266.410845h699.715537v3.844004H98.235662z" fill="#7DC9EE" p-id="44545"></path><path d="M98.235662 262.460063h699.715537v3.844004H98.235662z" fill="#7ECAEE" p-id="44546"></path><path d="M98.235662 258.616058h699.715537v3.844005H98.235662z" fill="#7FCBEF" p-id="44547"></path><path d="M98.235662 254.665276h699.715537v3.844005H98.235662z" fill="#80CBEF" p-id="44548"></path><path d="M98.235662 250.821272h699.715537v3.844004H98.235662z" fill="#81CCEF" p-id="44549"></path><path d="M98.235662 246.87049h699.715537v3.844004H98.235662z" fill="#82CDF0" p-id="44550"></path><path d="M98.235662 243.026486h699.715537v3.844004H98.235662z" fill="#83CDF0" p-id="44551"></path><path d="M98.235662 239.075704h699.715537v3.844004H98.235662z" fill="#84CEF0" p-id="44552"></path><path d="M98.235662 235.2317h699.715537v3.844004H98.235662z" fill="#85CEF0" p-id="44553"></path><path d="M98.235662 231.280918h699.715537v3.844004H98.235662z" fill="#85CFF1" p-id="44554"></path><path d="M98.235662 227.436913h699.715537v3.844005H98.235662z" fill="#86CFF1" p-id="44555"></path><path d="M98.235662 223.486131h699.715537v3.844005H98.235662zM98.235662 94.498436h699.715537v128.987695H98.235662z" fill="#87D0F1" p-id="44556"></path><path d="M743.601251 939.111575H152.58561c-35.877372 0-65.027737-29.150365-65.027737-65.027738V148.955162c0-35.877372 29.150365-65.027737 65.027737-65.027738h591.015641c35.877372 0 65.027737 29.150365 65.027738 65.027738v725.128675c0 35.877372-29.150365 65.027737-65.027738 65.027738zM152.58561 105.176225c-24.131804 0-43.672158 19.647132-43.672158 43.672159v725.128675c0 24.131804 19.647132 43.672158 43.672158 43.672159h591.015641c24.131804 0 43.672158-19.647132 43.672159-43.672159v-725.021897c0-24.131804-19.647132-43.672158-43.672159-43.672159H152.58561z" fill="#1582CF" p-id="44557"></path><path d="M526.735349 562.18561s150.129718-622.51512 332.07925-533.889468c206.081335 100.37122-115.320125 558.234828-115.320126 558.234828l-216.759124-24.34536z" fill="#013E53" p-id="44558"></path><path d="M615.681335 573.717623s57.339729-370.305735 238.862148-486.69364c-129.201251 111.049009-222.311575 441.099479-210.993118 497.157873 11.318457 55.951616-27.86903-10.464234-27.86903-10.464233z" fill="#FFFFFF" p-id="44559"></path><path d="M889.13952 1004.24609H497.584984c-26.160584 0-47.302607-21.142023-47.302607-47.302607V540.723253c0-26.160584 21.142023-47.302607 47.302607-47.302606h391.661314c26.160584 0 47.302607 21.142023 47.302607 47.302606v416.327008c-0.106778 26.053806-21.248801 47.195829-47.409385 47.195829z m0 0" fill="#4AAA77" p-id="44560"></path><path d="M650.277372 892.769969c-7.367675 0-14.628571-2.883003-20.2878-8.328676L515.203337 769.121168c-11.211679-11.211679-11.211679-29.470699 0-40.682378s29.363921-11.211679 40.575599 0l94.498436 94.81877 180.561418-181.308863c11.211679-11.211679 29.363921-11.211679 40.5756 0s11.211679 29.577477 0 40.789155L670.565172 884.227737c-5.55245 5.659228-12.920125 8.542231-20.2878 8.542232z m0 0" fill="#FFFFFF" p-id="44561"></path></svg>