<?xml version="1.0" standalone="no"?><!DOCTYPE svg PUBLIC "-//W3C//DTD SVG 1.1//EN" "http://www.w3.org/Graphics/SVG/1.1/DTD/svg11.dtd"><svg t="1685542209998" class="icon" viewBox="0 0 1024 1024" version="1.1" xmlns="http://www.w3.org/2000/svg" p-id="6901" width="600" height="600" xmlns:xlink="http://www.w3.org/1999/xlink"><path d="M592.625878 541.271815c-17.460381 0 3.081244 8.21665 25.677031 12.324975 6.162487-5.135406 11.297894-9.243731 16.4333-14.379137-14.379137 3.081244-28.758275 3.081244-42.110331 2.054162M684.036108 517.648947c10.270812-13.352056 17.460381-28.758275 20.541625-45.191575-3.081244 11.297894-8.21665 21.568706-14.379137 30.812437-31.839519 19.514544-3.081244-12.324975 0-23.622868-33.893681 43.137412-5.135406 25.677031-6.162488 38.002006M716.902708 430.347041c2.054162-30.812437-6.162487-20.541625-8.21665-9.243731 3.081244 2.054162 5.135406 21.568706 8.21665 9.243731M527.919759 13.352056c9.243731 2.054162 19.514544 3.081244 18.487463 5.135406 10.270812-2.054162 11.297894-4.108325-18.487463-5.135406M546.407222 18.487462l-6.162488 1.027082 6.162488-1.027082" fill="#A80030" p-id="6902"></path><path d="M828.854564 442.672016c1.027081 27.731194-8.21665 41.08325-16.4333 64.706118l-14.379138 6.162488c-12.324975 23.622869 1.027081 14.379137-7.189568 32.8666-18.487462 16.4333-57.51655 52.381143-68.814444 55.462387-9.243731 0 6.162487-10.270812 8.21665-14.379138-24.64995 17.460381-20.541625 25.677031-58.543631 35.947844l-1.027081-2.054163c-94.491474 44.164493-225.957874-43.137412-223.903711-164.332999-1.027081 7.189569-3.081244 6.162487-5.135406 9.243732-5.135406-62.651956 28.758275-122.222668 85.247743-148.926781 52.381143-26.704112 115.033099-18.487462 159.197593 20.541625-27.731194-35.947844-70.868606-56.489468-116.060181-55.462387-50.326981 1.027081-97.572718 32.8666-112.978937 66.760281-25.677031 16.4333-28.758275 62.651956-40.056168 70.868606-15.406219 110.924774 28.758275 158.170512 101.681043 214.65998 11.297894 8.21665 3.081244 9.243731 5.135406 14.379137-24.64995-12.324975-47.245737-28.758275-64.706118-49.2999 9.243731 14.379137 20.541625 27.731194 33.893681 39.029088-22.595787-8.21665-53.408225-55.462387-62.651956-57.51655 40.056169 70.868606 161.251755 124.27683 224.930793 97.572718-33.893681 2.054162-67.787362-1.027081-99.626881-11.297894-13.352056-7.189569-32.8666-21.568706-29.785356-24.649949 86.274824 32.8666 176.657974 24.64995 251.634905-35.947844 19.514544-14.379137 40.056169-40.056169 46.218655-40.056168-9.243731 13.352056 2.054162 6.162487-5.135406 18.487462 18.487462-30.812437-8.21665-12.324975 19.514544-53.408225l10.270812 14.379138c-4.108325-25.677031 31.839519-56.489468 27.731194-96.545637 8.21665-12.324975 9.243731 13.352056 0 41.08325 12.324975-31.839519 3.081244-36.974925 6.162487-62.651956 4.108325 9.243731 7.189569 17.460381 10.270813 27.731193-8.21665-30.812437 8.21665-51.354062 12.324975-68.814443-4.108325-2.054162-12.324975 13.352056-13.352056-22.595787 0-15.406219 4.108325-8.21665 6.162487-12.324975-3.081244-2.054162-11.297894-13.352056-16.4333-36.974925 3.081244-5.135406 9.243731 14.379137 14.379138 14.379137-4.108325-15.406219-7.189569-30.812437-8.21665-46.218656-14.379137-29.785356-5.135406 4.108325-16.4333-12.324975-15.406219-46.218656 12.324975-11.297894 14.379137-31.839518 22.595787 32.8666 35.947844 84.220662 41.08325 104.762287-4.108325-25.677031-11.297894-50.326981-20.541625-74.976931 7.189569 3.081244-11.297894-53.408225 9.243731-15.406219-25.677031-78.058175-95.518556-150.980943-160.224674-185.901705 8.21665 7.189569 17.460381 16.4333 14.379138 17.460381-31.839519-19.514544-26.704112-20.541625-30.812438-28.758275-26.704112-10.270812-27.731194 1.027081-45.191574 0-49.2999-25.677031-59.570712-22.595787-104.762287-39.029087l2.054162 9.243731c-32.8666-11.297894-38.002006 4.108325-73.949849 0-2.054162-2.054162 11.297894-6.162487 22.595787-8.21665-31.839519 4.108325-29.785356-6.162487-60.597793 1.027082 8.21665-5.135406 15.406219-9.243731 23.622868-13.352057-25.677031 1.027081-61.624875 15.406219-50.326981 3.081244-42.110331 18.487462-117.087262 45.191575-159.197593 84.220662l-2.054162-8.21665c-19.514544 22.595787-84.220662 68.814443-89.356068 98.5998l-5.135406 1.027081c-9.243731 17.460381-17.460381 34.920762-24.64995 53.408225-13.352056 22.595787-19.514544 8.21665-17.460381 12.324974-20.541625 42.110331-36.974925 86.274824-49.2999 131.4664 8.21665 11.297894 0 70.868606 3.081244 118.114343-10.270812 234.174524 165.36008 460.132397 358.451354 513.540622 28.758275 10.270812 69.841525 9.243731 105.789368 10.270812-42.110331-12.324975-47.245737-6.162487-89.356068-20.541625-29.785356-14.379137-35.947844-29.785356-57.51655-48.272818l8.21665 14.379137c-41.08325-14.379137-23.622869-18.487462-57.51655-28.758275l9.243731-11.297893c-13.352056-1.027081-34.920762-22.595787-41.083249-33.893681l-14.379138 1.027081c-17.460381-21.568706-26.704112-36.974925-26.704112-49.2999l-5.135406 8.21665c-5.135406-9.243731-64.706118-81.139418-33.893681-64.706118-9.243731-6.162487-16.4333-14.379137-21.568706-23.622869l6.162487-7.189569c-14.379137-18.487462-27.731194-43.137412-26.704112-51.354062 4.108325 7.189569 11.297894 12.324975 18.487462 14.379138-36.974925-92.437312-39.029087-5.135406-67.787362-94.491475h6.162487c-4.108325-7.189569-8.21665-14.379137-11.297893-21.568706l2.054162-25.677031c-26.704112-30.812437-7.189569-132.49348-3.081244-187.955868 3.081244-22.595787 22.595787-46.218656 38.002007-84.220662l-9.243732-2.054162c17.460381-30.812437 99.626881-122.222668 138.655968-118.114343 18.487462-23.622869-4.108325 0-7.189568-6.162488 41.08325-42.110331 53.408225-29.785356 81.139418-36.974924 29.785356-17.460381-25.677031 7.189569-11.297894-6.162488 51.354062-13.352056 35.947844-29.785356 102.708124-35.947843 7.189569 4.108325-16.4333 6.162487-22.595787 11.297893 43.137412-20.541625 134.547643-16.4333 194.118355 11.297894 69.841525 32.8666 147.899699 128.385155 150.980943 218.768305l3.081244 1.027081c-2.054162 35.947844 5.135406 77.031093-7.189569 115.033099l8.21665-18.487462" fill="#A80030" p-id="6903"></path><path d="M407.751254 563.867603l-3.081244 12.324975c9.243731 15.406219 21.568706 30.812437 33.893681 43.137412-10.270812-19.514544-17.460381-27.731194-30.812437-55.462387M433.428285 562.840522c-5.135406-7.189569-10.270812-14.379137-13.352056-22.595788 4.108325 13.352056 10.270812 25.677031 18.487462 38.002006l-5.135406-15.406218M899.72317 461.159478l-2.054163 6.162488c-4.108325 32.8666-14.379137 64.706118-29.785356 94.491474 16.4333-30.812437 27.731194-64.706118 31.839519-100.653962M532.028084 5.135406c11.297894-4.108325 28.758275-2.054162 40.056169-5.135406-15.406219 1.027081-31.839519 2.054162-47.245737 4.108325l7.189568 1.027081M128.385155 218.768305c3.081244 24.64995-18.487462 33.893681 5.135407 17.460381 12.324975-26.704112-5.135406-7.189569-5.135407-17.460381M101.681043 332.774323c3.081244-11.297894 6.162487-23.622869 8.21665-35.947844-14.379137 18.487462-6.162487 22.595787-8.21665 35.947844" fill="#A80030" p-id="6904"></path></svg>