<?xml version="1.0" standalone="no"?><!DOCTYPE svg PUBLIC "-//W3C//DTD SVG 1.1//EN" "http://www.w3.org/Graphics/SVG/1.1/DTD/svg11.dtd"><svg t="1685544250974" class="icon" viewBox="0 0 1024 1024" version="1.1" xmlns="http://www.w3.org/2000/svg" p-id="42304" xmlns:xlink="http://www.w3.org/1999/xlink" width="600" height="600"><path d="M757.12 103.68H196.288A68.48 68.48 0 0 0 128 171.968v618.432c0 37.568 30.72 68.288 68.352 68.288h369.28c-4.16-183.744 58.56-540.352 191.424-755.008z" fill="#0F80CC" p-id="42305"></path><path d="M887.872 83.392c-38.4-34.24-84.928-20.48-130.816 20.288-6.784 6.016-13.568 12.736-20.352 19.904-78.528 83.264-151.36 237.568-174.08 355.328 8.896 17.92 15.744 40.768 20.288 58.176a548.416 548.416 0 0 1 6.144 26.176s-0.704-2.688-3.584-11.072a692.48 692.48 0 0 0-3.136-8.384c-5.12-11.904-19.264-37.056-25.536-48-5.312 15.744-10.048 30.464-13.952 43.776 17.984 32.96 28.928 89.344 28.928 89.344s-0.896-3.648-5.44-16.384c-4.032-11.328-24-46.336-28.8-54.528-8.064 29.888-11.264 50.112-8.32 55.04 5.568 9.536 10.944 25.984 15.68 44.16 10.624 40.96 18.048 90.816 18.048 90.816l0.64 8.32c-1.472 34.432-0.64 70.144 2.048 102.4 3.52 42.624 10.24 79.296 18.624 98.88l5.76-3.136c-12.416-38.656-17.472-89.28-15.232-147.712 3.328-89.28 23.872-196.992 61.824-309.184 64.128-169.408 153.152-305.344 234.624-370.304-74.24 67.072-174.72 284.096-204.8 364.416-33.664 90.048-57.6 174.464-71.936 255.36 24.832-75.84 105.024-108.416 105.024-108.416s39.36-48.576 85.376-117.888c-27.52 6.272-72.768 17.024-87.936 23.424-22.4 9.344-28.352 12.544-28.352 12.544s72.32-44.096 134.464-64c85.44-134.592 178.56-325.76 84.8-409.344" fill="#003B57" p-id="42306"></path></svg>