<?xml version="1.0" standalone="no"?><!DOCTYPE svg PUBLIC "-//W3C//DTD SVG 1.1//EN" "http://www.w3.org/Graphics/SVG/1.1/DTD/svg11.dtd"><svg t="1730879098432" class="icon" viewBox="0 0 1024 1024" version="1.1" xmlns="http://www.w3.org/2000/svg" p-id="4273" xmlns:xlink="http://www.w3.org/1999/xlink" width="200" height="200"><path d="M426.666667 170.666667H170.666667c-47.36 0-85.333333 37.973333-85.333334 85.333333v512c0 46.805333 38.528 85.333333 85.333334 85.333333h682.666666c46.805333 0 85.333333-38.528 85.333334-85.333333V341.333333a85.333333 85.333333 0 0 0-85.333334-85.333333h-341.333333l-85.333333-85.333333z" fill="#616161" p-id="4274"></path><path d="M781.653333 723.2l-161.749333-52.48a12.672 12.672 0 0 1-8.192-11.178667l-1.578667-124.330666a12.330667 12.330667 0 0 1 8.021334-11.136l381.226666-121.941334c4.522667-1.450667 8.149333 1.194667 8.149334 5.930667v124.288a12.629333 12.629333 0 0 1-8.106667 11.264l-157.312 52.437333 159.914667 49.92a12.288 12.288 0 0 1 8.149333 11.093334v122.538666c0 4.693333-3.584 9.728-8.064 11.264l-382.208 129.664c-4.48 1.536-8.106667-1.066667-8.149333-5.76l-0.768-127.914666a12.373333 12.373333 0 0 1 8.064-11.136l162.602666-52.522667z" fill="#FFA726" p-id="4275"></path></svg>