<?xml version="1.0" encoding="us-ascii" standalone="no"?><svg xmlns="http://www.w3.org/2000/svg" xmlns:xlink="http://www.w3.org/1999/xlink" contentStyleType="text/css" height="376.2px" preserveAspectRatio="none" style="width:672px;height:376px;background:#FFFFFF;" version="1.1" viewBox="0 0 672 376" width="672.6px" zoomAndPan="magnify"><defs/><g><!--class ?A--><g id="elem_&#31867;A"><rect codeLine="1" fill="#F1F1F1" height="323.9203" id="&#31867;A" rx="9.5" ry="9.5" style="stroke:#181818;stroke-width:1.8999999999999997;" width="243.2" x="26.6" y="26.6"/><ellipse cx="98.99" cy="87.4" fill="#ADD1B2" rx="41.8" ry="41.8" style="stroke:#181818;stroke-width:3.7999999999999994;"/><path d="M96.4962,109.6656 Q88.9556,109.6656 84.5025,104.0844 Q80.1087,98.4437 80.1087,86.7469 Q80.1087,76.8312 84.74,70.1812 Q89.4306,63.5312 97.5056,63.5312 Q99.4056,63.5312 101.4244,64.0656 Q103.0869,64.7781 104.0962,64.7781 Q104.9275,64.7781 105.2837,64.6 Q105.6994,64.4219 107.4212,62.1656 L110.3306,76.3562 L106.9462,77.3656 Q105.2244,71.8437 102.9087,69.5875 Q100.6525,67.2719 97.0306,67.2719 Q92.3994,67.2719 89.6681,72.7344 Q86.9369,78.1375 86.9369,86.45 Q86.9369,95.5937 89.2525,100.5219 Q91.6275,105.3906 96.7931,105.3906 Q100.415,105.3906 103.0275,102.7781 Q105.64,100.1062 106.8869,94.4062 L110.3306,95.95 Q108.7869,102.4219 105.1056,106.0437 Q101.4837,109.6656 96.4962,109.6656 Z " fill="#000000"/><text fill="#000000" font-family="sans-serif" font-size="53.2" lengthAdjust="spacing" textLength="87.4" x="155.61" y="109.4281">&#31867;A</text><line style="stroke:#181818;stroke-width:1.8999999999999997;" x1="30.4" x2="266" y1="148.2" y2="148.2"/><text fill="#000000" font-family="sans-serif" font-size="53.2" lengthAdjust="spacing" textLength="159.6" x="49.4" y="220.8082">&#23646;&#24615;&#21517;</text><line style="stroke:#181818;stroke-width:1.8999999999999997;" x1="30.4" x2="266" y1="249.3602" y2="249.3602"/><text fill="#000000" font-family="sans-serif" font-size="53.2" lengthAdjust="spacing" textLength="197.6" x="49.4" y="321.9684">&#26041;&#27861;&#21517;()</text></g><!--class ?B--><g id="elem_&#31867;B"><rect codeLine="6" fill="#F1F1F1" height="323.9203" id="&#31867;B" rx="9.5" ry="9.5" style="stroke:#181818;stroke-width:1.8999999999999997;" width="243.2" x="402.8" y="26.6"/><ellipse cx="475.19" cy="87.4" fill="#ADD1B2" rx="41.8" ry="41.8" style="stroke:#181818;stroke-width:3.7999999999999994;"/><path d="M472.6962,109.6656 Q465.1556,109.6656 460.7025,104.0844 Q456.3087,98.4437 456.3087,86.7469 Q456.3087,76.8312 460.94,70.1812 Q465.6306,63.5312 473.7056,63.5312 Q475.6056,63.5312 477.6244,64.0656 Q479.2869,64.7781 480.2962,64.7781 Q481.1275,64.7781 481.4837,64.6 Q481.8994,64.4219 483.6212,62.1656 L486.5306,76.3562 L483.1462,77.3656 Q481.4244,71.8437 479.1087,69.5875 Q476.8525,67.2719 473.2306,67.2719 Q468.5994,67.2719 465.8681,72.7344 Q463.1369,78.1375 463.1369,86.45 Q463.1369,95.5937 465.4525,100.5219 Q467.8275,105.3906 472.9931,105.3906 Q476.615,105.3906 479.2275,102.7781 Q481.84,100.1062 483.0869,94.4062 L486.5306,95.95 Q484.9869,102.4219 481.3056,106.0437 Q477.6837,109.6656 472.6962,109.6656 Z " fill="#000000"/><text fill="#000000" font-family="sans-serif" font-size="53.2" lengthAdjust="spacing" textLength="87.4" x="531.81" y="109.4281">&#31867;B</text><line style="stroke:#181818;stroke-width:1.8999999999999997;" x1="406.6" x2="642.2" y1="148.2" y2="148.2"/><text fill="#000000" font-family="sans-serif" font-size="53.2" lengthAdjust="spacing" textLength="159.6" x="425.6" y="220.8082">&#23383;&#27573;&#21517;</text><line style="stroke:#181818;stroke-width:1.8999999999999997;" x1="406.6" x2="642.2" y1="249.3602" y2="249.3602"/><text fill="#000000" font-family="sans-serif" font-size="53.2" lengthAdjust="spacing" textLength="197.6" x="425.6" y="321.9684">&#25805;&#20316;&#21517;()</text></g><!--SRC=[Iyv9B2vMUBvnjwD2DPS243pTEEzPm_Ad4th1l6VJTZxRF1N8qz3agkNYIeQfTeAfNZlzsRgjSDMJUv_idGDL3G00]--></g></svg>