<?xml version="1.0" encoding="us-ascii" standalone="no"?><svg xmlns="http://www.w3.org/2000/svg" xmlns:xlink="http://www.w3.org/1999/xlink" contentStyleType="text/css" height="353.6px" preserveAspectRatio="none" style="width:735px;height:353px;background:#FFFFFF;" version="1.1" viewBox="0 0 735 353" width="735.8px" zoomAndPan="magnify"><defs/><g><!--class ??????--><g id="elem_&#23646;&#24615;&#31354;&#24515;&#22270;&#26631;"><rect codeLine="1" fill="#F1F1F1" height="318.4594" id="&#23646;&#24615;&#31354;&#24515;&#22270;&#26631;" rx="6.5" ry="6.5" style="stroke:#181818;stroke-width:1.3;" width="301.6" x="23.4" y="18.2"/><ellipse cx="62.4" cy="59.8" fill="#ADD1B2" rx="28.6" ry="28.6" style="stroke:#181818;stroke-width:2.6;"/><path d="M60.6938,75.0344 Q55.5344,75.0344 52.4875,71.2156 Q49.4813,67.3563 49.4813,59.3531 Q49.4813,52.5688 52.65,48.0188 Q55.8594,43.4688 61.3844,43.4688 Q62.6844,43.4688 64.0656,43.8344 Q65.2031,44.3219 65.8938,44.3219 Q66.4625,44.3219 66.7063,44.2 Q66.9906,44.0781 68.1688,42.5344 L70.1594,52.2438 L67.8438,52.9344 Q66.6656,49.1563 65.0813,47.6125 Q63.5375,46.0281 61.0594,46.0281 Q57.8906,46.0281 56.0219,49.7656 Q54.1531,53.4625 54.1531,59.15 Q54.1531,65.4063 55.7375,68.7781 Q57.3625,72.1094 60.8969,72.1094 Q63.375,72.1094 65.1625,70.3219 Q66.95,68.4938 67.8031,64.5938 L70.1594,65.65 Q69.1031,70.0781 66.5844,72.5563 Q64.1063,75.0344 60.6938,75.0344 Z " fill="#000000"/><text fill="#000000" font-family="sans-serif" font-size="36.4" lengthAdjust="spacing" textLength="218.4" x="98.8" y="74.8719">&#23646;&#24615;&#31354;&#24515;&#22270;&#26631;</text><line style="stroke:#181818;stroke-width:1.3;" x1="26" x2="322.4" y1="101.4" y2="101.4"/><rect fill="none" height="15.6" style="stroke:#C82930;stroke-width:2.6;" width="15.6" x="44.2" y="132.1074"/><text fill="#000000" font-family="sans-serif" font-size="36.4" lengthAdjust="spacing" textLength="145.6" x="75.4" y="151.0793">&#31169;&#26377;&#23646;&#24615;</text><polygon fill="none" points="52,175.3223,62.4,185.7223,52,196.1223,41.6,185.7223" style="stroke:#B38D22;stroke-width:2.6;"/><text fill="#000000" font-family="sans-serif" font-size="36.4" lengthAdjust="spacing" textLength="182" x="75.4" y="199.4941">&#21463;&#20445;&#25252;&#23646;&#24615;</text><ellipse cx="52" cy="236.7371" fill="none" rx="7.8" ry="7.8" style="stroke:#038048;stroke-width:2.6;"/><text fill="#000000" font-family="sans-serif" font-size="36.4" lengthAdjust="spacing" textLength="145.6" x="75.4" y="247.909">&#20844;&#20849;&#23646;&#24615;</text><polygon fill="none" points="52,274.752,41.6,290.352,62.4,290.352" style="stroke:#1963A0;stroke-width:2.6;"/><text fill="#000000" font-family="sans-serif" font-size="36.4" lengthAdjust="spacing" textLength="182" x="75.4" y="296.3238">&#21253;&#31169;&#26377;&#23646;&#24615;</text><line style="stroke:#181818;stroke-width:1.3;" x1="26" x2="322.4" y1="315.8594" y2="315.8594"/></g><!--class ??????--><g id="elem_&#26041;&#27861;&#23454;&#20307;&#22270;&#26631;"><rect codeLine="8" fill="#F1F1F1" height="318.4594" id="&#26041;&#27861;&#23454;&#20307;&#22270;&#26631;" rx="6.5" ry="6.5" style="stroke:#181818;stroke-width:1.3;" width="301.6" x="416" y="18.2"/><ellipse cx="455" cy="59.8" fill="#ADD1B2" rx="28.6" ry="28.6" style="stroke:#181818;stroke-width:2.6;"/><path d="M453.2938,75.0344 Q448.1344,75.0344 445.0875,71.2156 Q442.0813,67.3563 442.0813,59.3531 Q442.0813,52.5688 445.25,48.0188 Q448.4594,43.4688 453.9844,43.4688 Q455.2844,43.4688 456.6656,43.8344 Q457.8031,44.3219 458.4938,44.3219 Q459.0625,44.3219 459.3063,44.2 Q459.5906,44.0781 460.7688,42.5344 L462.7594,52.2438 L460.4438,52.9344 Q459.2656,49.1563 457.6813,47.6125 Q456.1375,46.0281 453.6594,46.0281 Q450.4906,46.0281 448.6219,49.7656 Q446.7531,53.4625 446.7531,59.15 Q446.7531,65.4063 448.3375,68.7781 Q449.9625,72.1094 453.4969,72.1094 Q455.975,72.1094 457.7625,70.3219 Q459.55,68.4938 460.4031,64.5938 L462.7594,65.65 Q461.7031,70.0781 459.1844,72.5563 Q456.7063,75.0344 453.2938,75.0344 Z " fill="#000000"/><text fill="#000000" font-family="sans-serif" font-size="36.4" lengthAdjust="spacing" textLength="218.4" x="491.4" y="74.8719">&#26041;&#27861;&#23454;&#20307;&#22270;&#26631;</text><line style="stroke:#181818;stroke-width:1.3;" x1="418.6" x2="715" y1="101.4" y2="101.4"/><line style="stroke:#181818;stroke-width:1.3;" x1="418.6" x2="715" y1="122.2" y2="122.2"/><rect fill="#F24D5C" height="15.6" style="stroke:#C82930;stroke-width:2.6;" width="15.6" x="436.8" y="152.9074"/><text fill="#000000" font-family="sans-serif" font-size="36.4" lengthAdjust="spacing" textLength="171.6" x="468" y="171.8793">&#31169;&#26377;&#26041;&#27861;()</text><polygon fill="#FFFF44" points="444.6,196.1223,455,206.5223,444.6,216.9223,434.2,206.5223" style="stroke:#B38D22;stroke-width:2.6;"/><text fill="#000000" font-family="sans-serif" font-size="36.4" lengthAdjust="spacing" textLength="208" x="468" y="220.2941">&#21463;&#20445;&#25252;&#26041;&#27861;()</text><ellipse cx="444.6" cy="257.5371" fill="#84BE84" rx="7.8" ry="7.8" style="stroke:#038048;stroke-width:2.6;"/><text fill="#000000" font-family="sans-serif" font-size="36.4" lengthAdjust="spacing" textLength="171.6" x="468" y="268.709">&#20844;&#20849;&#26041;&#27861;()</text><polygon fill="#4177AF" points="444.6,295.552,434.2,311.152,455,311.152" style="stroke:#1963A0;stroke-width:2.6;"/><text fill="#000000" font-family="sans-serif" font-size="36.4" lengthAdjust="spacing" textLength="208" x="468" y="317.1238">&#21253;&#31169;&#26377;&#26041;&#27861;()</text></g><!--SRC=[Iyv9B2vMUBfnthE6vSzNxdgwl_dfx7tF5hGhL7Cf086kmlFbZS_cT48KW8MK5PxsJt-oV-wphYL8ejeAJrlNF6tTY2HKf_2qfnLPkm9NBHTNCjZ2PzDsFjiyzUcwUK_sJiPg8KI1XYQwbIZYC4jH196iXOlN0W00]--></g></svg>