<?xml version="1.0" encoding="us-ascii" standalone="no"?><svg xmlns="http://www.w3.org/2000/svg" xmlns:xlink="http://www.w3.org/1999/xlink" contentStyleType="text/css" height="364px" preserveAspectRatio="none" style="width:394px;height:364px;background:#FFFFFF;" version="1.1" viewBox="0 0 394 364" width="394px" zoomAndPan="magnify"><defs/><g><!--class ???--><g id="elem_&#26222;&#36890;&#31867;"><rect codeLine="1" fill="#F1F1F1" height="96" id="&#26222;&#36890;&#31867;" rx="5" ry="5" style="stroke:#181818;stroke-width:1.0;" width="148" x="14" y="14"/><ellipse cx="44" cy="46" fill="#ADD1B2" rx="22" ry="22" style="stroke:#181818;stroke-width:2.0;"/><path d="M42.6875,57.7188 Q38.7188,57.7188 36.375,54.7813 Q34.0625,51.8125 34.0625,45.6563 Q34.0625,40.4375 36.5,36.9375 Q38.9688,33.4375 43.2188,33.4375 Q44.2188,33.4375 45.2813,33.7188 Q46.1563,34.0938 46.6875,34.0938 Q47.125,34.0938 47.3125,34 Q47.5313,33.9063 48.4375,32.7188 L49.9688,40.1875 L48.1875,40.7188 Q47.2813,37.8125 46.0625,36.625 Q44.875,35.4063 42.9688,35.4063 Q40.5313,35.4063 39.0938,38.2813 Q37.6563,41.125 37.6563,45.5 Q37.6563,50.3125 38.875,52.9063 Q40.125,55.4688 42.8438,55.4688 Q44.75,55.4688 46.125,54.0938 Q47.5,52.6875 48.1563,49.6875 L49.9688,50.5 Q49.1563,53.9063 47.2188,55.8125 Q45.3125,57.7188 42.6875,57.7188 Z " fill="#000000"/><text fill="#000000" font-family="sans-serif" font-size="28" lengthAdjust="spacing" textLength="84" x="72" y="57.5938">&#26222;&#36890;&#31867;</text><line style="stroke:#181818;stroke-width:1.0;" x1="16" x2="160" y1="78" y2="78"/><line style="stroke:#181818;stroke-width:1.0;" x1="16" x2="160" y1="94" y2="94"/></g><!--class ???--><g id="elem_&#25509;&#21475;&#31867;"><rect codeLine="2" fill="#F1F1F1" height="96" id="&#25509;&#21475;&#31867;" rx="5" ry="5" style="stroke:#181818;stroke-width:1.0;" width="148" x="232" y="14"/><ellipse cx="262" cy="46" fill="#B4A7E5" rx="22" ry="22" style="stroke:#181818;stroke-width:2.0;"/><path d="M255.1875,35.5625 L255.1875,33.6875 L266.875,33.6875 L266.875,35.5625 L263.2813,35.5625 Q262.9375,35.5625 262.7813,35.6875 Q262.625,35.8125 262.625,36.0938 L262.625,55.0625 Q262.625,55.3438 262.7813,55.4688 Q262.9375,55.5938 263.2813,55.5938 L266.875,55.5938 L266.875,57.4688 L255.1875,57.4688 L255.1875,55.5938 L258.7813,55.5938 Q259.2188,55.5938 259.3125,55.5 Q259.4375,55.375 259.4375,55.0625 L259.4375,36.0938 Q259.4375,35.7813 259.3125,35.6875 Q259.2188,35.5625 258.7813,35.5625 L255.1875,35.5625 Z " fill="#000000"/><text fill="#000000" font-family="sans-serif" font-size="28" font-style="italic" lengthAdjust="spacing" textLength="84" x="290" y="57.5938">&#25509;&#21475;&#31867;</text><line style="stroke:#181818;stroke-width:1.0;" x1="234" x2="378" y1="78" y2="78"/><line style="stroke:#181818;stroke-width:1.0;" x1="234" x2="378" y1="94" y2="94"/></g><!--class ???--><g id="elem_&#25277;&#35937;&#31867;"><rect codeLine="3" fill="#F1F1F1" height="96" id="&#25277;&#35937;&#31867;" rx="5" ry="5" style="stroke:#181818;stroke-width:1.0;" width="148" x="14" y="243"/><ellipse cx="44" cy="275" fill="#A9DCDF" rx="22" ry="22" style="stroke:#181818;stroke-width:2.0;"/><path d="M44.8438,275.9688 L39.7188,275.9688 L38.6563,280.5625 Q38.5313,281.2188 38.5313,281.5313 Q38.5313,281.9688 38.625,282.2813 Q38.75,282.5938 39.3125,282.5938 L40.25,282.5938 L40.25,284.4688 L34.2813,284.4688 L34.2813,282.5938 L35.1875,282.5938 Q35.5313,282.5938 35.7813,282.4063 Q36.0313,282.1875 36.125,281.5938 L41.4063,260.9375 L44.2188,260 L49.375,281.5313 Q49.5938,282.1563 49.8438,282.375 Q50.125,282.5938 50.4688,282.5938 L51.4063,282.5938 L51.4063,284.4688 L44.625,284.4688 L44.625,282.5938 L45.6875,282.5938 Q46.125,282.5938 46.1563,282.5 Q46.2188,282.375 46.2188,282.2188 Q46.2188,281.7813 46.125,281.4063 L44.8438,275.9688 Z M35.7188,283.6563 L35.7188,283.6563 Z M37.0625,283.6563 L37.0625,283.6563 Z M46.5,283.6563 L46.5,283.6563 Z M48.75,283.6563 L48.75,283.6563 Z M42.375,263.7813 L42.5,263.7813 L40.2813,274.0938 L44.4688,274.0938 L42.375,263.7813 Z " fill="#000000"/><text fill="#000000" font-family="sans-serif" font-size="28" font-style="italic" lengthAdjust="spacing" textLength="84" x="72" y="286.5938">&#25277;&#35937;&#31867;</text><line style="stroke:#181818;stroke-width:1.0;" x1="16" x2="160" y1="307" y2="307"/><line style="stroke:#181818;stroke-width:1.0;" x1="16" x2="160" y1="323" y2="323"/></g><!--class ???--><g id="elem_&#29305;&#24449;&#31867;"><rect codeLine="4" fill="#F1F1F1" height="121.1641" id="&#29305;&#24449;&#31867;" rx="5" ry="5" style="stroke:#181818;stroke-width:1.0;" width="148" x="232" y="230"/><ellipse cx="262" cy="274.582" fill="#ADD1B2" rx="22" ry="22" style="stroke:#181818;stroke-width:2.0;"/><path d="M260.6875,286.3008 Q256.7188,286.3008 254.375,283.3633 Q252.0625,280.3945 252.0625,274.2383 Q252.0625,269.0195 254.5,265.5195 Q256.9688,262.0195 261.2188,262.0195 Q262.2188,262.0195 263.2813,262.3008 Q264.1563,262.6758 264.6875,262.6758 Q265.125,262.6758 265.3125,262.582 Q265.5313,262.4883 266.4375,261.3008 L267.9688,268.7695 L266.1875,269.3008 Q265.2813,266.3945 264.0625,265.207 Q262.875,263.9883 260.9688,263.9883 Q258.5313,263.9883 257.0938,266.8633 Q255.6563,269.707 255.6563,274.082 Q255.6563,278.8945 256.875,281.4883 Q258.125,284.0508 260.8438,284.0508 Q262.75,284.0508 264.125,282.6758 Q265.5,281.2695 266.1563,278.2695 L267.9688,279.082 Q267.1563,282.4883 265.2188,284.3945 Q263.3125,286.3008 260.6875,286.3008 Z " fill="#000000"/><text fill="#000000" font-family="sans-serif" font-size="24" font-style="italic" lengthAdjust="spacing" textLength="68" x="298" y="265.8984">&#171;trait&#187;</text><text fill="#000000" font-family="sans-serif" font-size="28" lengthAdjust="spacing" textLength="84" x="290" y="302.1367">&#29305;&#24449;&#31867;</text><line style="stroke:#181818;stroke-width:1.0;" x1="234" x2="378" y1="319.1641" y2="319.1641"/><line style="stroke:#181818;stroke-width:1.0;" x1="234" x2="378" y1="335.1641" y2="335.1641"/></g><!--SRC=[Iyv9B2vMU3PptSk6MSytxgwkvShCAqajIajCJbLurhVqQVzYY6XYKd59KM9oYK8oH4FNtXSR5qAa82BFEtS-tTS8556miG6gp2oniwkk1G00]--></g></svg>