<?xml version="1.0" encoding="us-ascii" standalone="no"?><svg xmlns="http://www.w3.org/2000/svg" xmlns:xlink="http://www.w3.org/1999/xlink" contentStyleType="text/css" height="327.6px" preserveAspectRatio="none" style="width:550px;height:327px;background:#FFFFFF;" version="1.1" viewBox="0 0 550 327" width="550.8px" zoomAndPan="magnify"><defs/><g><!--class ?--><g id="elem_&#31867;"><rect codeLine="1" fill="#F1F1F1" height="86.4" id="&#31867;" rx="4.5" ry="4.5" style="stroke:#181818;stroke-width:0.9;" width="82.8" x="37.8" y="12.6"/><ellipse cx="64.8" cy="41.4" fill="#ADD1B2" rx="19.8" ry="19.8" style="stroke:#181818;stroke-width:1.8;"/><path d="M63.6188,51.9469 Q60.0469,51.9469 57.9375,49.3031 Q55.8563,46.6313 55.8563,41.0906 Q55.8563,36.3938 58.05,33.2438 Q60.2719,30.0938 64.0969,30.0938 Q64.9969,30.0938 65.9531,30.3469 Q66.7406,30.6844 67.2188,30.6844 Q67.6125,30.6844 67.7813,30.6 Q67.9781,30.5156 68.7938,29.4469 L70.1719,36.1688 L68.5688,36.6469 Q67.7531,34.0313 66.6563,32.9625 Q65.5875,31.8656 63.8719,31.8656 Q61.6781,31.8656 60.3844,34.4531 Q59.0906,37.0125 59.0906,40.95 Q59.0906,45.2813 60.1875,47.6156 Q61.3125,49.9219 63.7594,49.9219 Q65.475,49.9219 66.7125,48.6844 Q67.95,47.4188 68.5406,44.7188 L70.1719,45.45 Q69.4406,48.5156 67.6969,50.2313 Q65.9813,51.9469 63.6188,51.9469 Z " fill="#000000"/><text fill="#000000" font-family="sans-serif" font-size="25.2" lengthAdjust="spacing" textLength="25.2" x="90" y="51.8344">&#31867;</text><line style="stroke:#181818;stroke-width:0.9;" x1="39.6" x2="118.8" y1="70.2" y2="70.2"/><line style="stroke:#181818;stroke-width:0.9;" x1="39.6" x2="118.8" y1="84.6" y2="84.6"/></g><!--class ????--><g id="elem_&#23545;&#35937;&#25509;&#21475;"><rect codeLine="2" fill="#F1F1F1" height="86.4" id="&#23545;&#35937;&#25509;&#21475;" rx="4.5" ry="4.5" style="stroke:#181818;stroke-width:0.9;" width="158.4" x="183.6" y="12.6"/><ellipse cx="210.6" cy="41.4" fill="#B4A7E5" rx="19.8" ry="19.8" style="stroke:#181818;stroke-width:1.8;"/><path d="M204.4688,32.0063 L204.4688,30.3188 L214.9875,30.3188 L214.9875,32.0063 L211.7531,32.0063 Q211.4438,32.0063 211.3031,32.1188 Q211.1625,32.2313 211.1625,32.4844 L211.1625,49.5563 Q211.1625,49.8094 211.3031,49.9219 Q211.4438,50.0344 211.7531,50.0344 L214.9875,50.0344 L214.9875,51.7219 L204.4688,51.7219 L204.4688,50.0344 L207.7031,50.0344 Q208.0969,50.0344 208.1813,49.95 Q208.2938,49.8375 208.2938,49.5563 L208.2938,32.4844 Q208.2938,32.2031 208.1813,32.1188 Q208.0969,32.0063 207.7031,32.0063 L204.4688,32.0063 Z " fill="#000000"/><text fill="#000000" font-family="sans-serif" font-size="25.2" font-style="italic" lengthAdjust="spacing" textLength="100.8" x="235.8" y="51.8344">&#23545;&#35937;&#25509;&#21475;</text><line style="stroke:#181818;stroke-width:0.9;" x1="185.4" x2="340.2" y1="70.2" y2="70.2"/><line style="stroke:#181818;stroke-width:0.9;" x1="185.4" x2="340.2" y1="84.6" y2="84.6"/></g><!--class ???--><g id="elem_&#25277;&#35937;&#31867;"><rect codeLine="3" fill="#F1F1F1" height="86.4" id="&#25277;&#35937;&#31867;" rx="4.5" ry="4.5" style="stroke:#181818;stroke-width:0.9;" width="133.2" x="405" y="12.6"/><ellipse cx="432" cy="41.4" fill="#A9DCDF" rx="19.8" ry="19.8" style="stroke:#181818;stroke-width:1.8;"/><path d="M432.7594,42.2719 L428.1469,42.2719 L427.1906,46.4063 Q427.0781,46.9969 427.0781,47.2781 Q427.0781,47.6719 427.1625,47.9531 Q427.275,48.2344 427.7813,48.2344 L428.625,48.2344 L428.625,49.9219 L423.2531,49.9219 L423.2531,48.2344 L424.0688,48.2344 Q424.3781,48.2344 424.6031,48.0656 Q424.8281,47.8688 424.9125,47.3344 L429.6656,28.7438 L432.1969,27.9 L436.8375,47.2781 Q437.0344,47.8406 437.2594,48.0375 Q437.5125,48.2344 437.8219,48.2344 L438.6656,48.2344 L438.6656,49.9219 L432.5625,49.9219 L432.5625,48.2344 L433.5188,48.2344 Q433.9125,48.2344 433.9406,48.15 Q433.9969,48.0375 433.9969,47.8969 Q433.9969,47.5031 433.9125,47.1656 L432.7594,42.2719 Z M424.5469,49.1906 L424.5469,49.1906 Z M425.7563,49.1906 L425.7563,49.1906 Z M434.25,49.1906 L434.25,49.1906 Z M436.275,49.1906 L436.275,49.1906 Z M430.5375,31.3031 L430.65,31.3031 L428.6531,40.5844 L432.4219,40.5844 L430.5375,31.3031 Z " fill="#000000"/><text fill="#000000" font-family="sans-serif" font-size="25.2" font-style="italic" lengthAdjust="spacing" textLength="75.6" x="457.2" y="51.8344">&#25277;&#35937;&#31867;</text><line style="stroke:#181818;stroke-width:0.9;" x1="406.8" x2="536.4" y1="70.2" y2="70.2"/><line style="stroke:#181818;stroke-width:0.9;" x1="406.8" x2="536.4" y1="84.6" y2="84.6"/></g><!--class ???--><g id="elem_&#29305;&#24449;&#31867;"><rect codeLine="4" fill="#F1F1F1" height="109.0477" id="&#29305;&#24449;&#31867;" rx="4.5" ry="4.5" style="stroke:#181818;stroke-width:0.9;" width="133.2" x="12.6" y="207"/><ellipse cx="39.6" cy="247.1238" fill="#ADD1B2" rx="19.8" ry="19.8" style="stroke:#181818;stroke-width:1.8;"/><path d="M38.4188,257.6707 Q34.8469,257.6707 32.7375,255.027 Q30.6563,252.3551 30.6563,246.8145 Q30.6563,242.1176 32.85,238.9676 Q35.0719,235.8176 38.8969,235.8176 Q39.7969,235.8176 40.7531,236.0707 Q41.5406,236.4082 42.0188,236.4082 Q42.4125,236.4082 42.5813,236.3238 Q42.7781,236.2395 43.5938,235.1707 L44.9719,241.8926 L43.3688,242.3707 Q42.5531,239.7551 41.4563,238.6863 Q40.3875,237.5895 38.6719,237.5895 Q36.4781,237.5895 35.1844,240.177 Q33.8906,242.7363 33.8906,246.6738 Q33.8906,251.0051 34.9875,253.3395 Q36.1125,255.6457 38.5594,255.6457 Q40.275,255.6457 41.5125,254.4082 Q42.75,253.1426 43.3406,250.4426 L44.9719,251.1738 Q44.2406,254.2395 42.4969,255.9551 Q40.7813,257.6707 38.4188,257.6707 Z " fill="#000000"/><text fill="#000000" font-family="sans-serif" font-size="21.6" font-style="italic" lengthAdjust="spacing" textLength="61.2" x="72" y="239.3086">&#171;trait&#187;</text><text fill="#000000" font-family="sans-serif" font-size="25.2" lengthAdjust="spacing" textLength="75.6" x="64.8" y="271.923">&#29305;&#24449;&#31867;</text><line style="stroke:#181818;stroke-width:0.9;" x1="14.4" x2="144" y1="287.2477" y2="287.2477"/><line style="stroke:#181818;stroke-width:0.9;" x1="14.4" x2="144" y1="301.6477" y2="301.6477"/></g><!--class ???--><g id="elem_&#26368;&#32456;&#31867;"><rect codeLine="5" fill="#F1F1F1" height="109.0477" id="&#26368;&#32456;&#31867;" rx="4.5" ry="4.5" style="stroke:#181818;stroke-width:0.9;" width="133.2" x="208.8" y="207"/><ellipse cx="235.8" cy="247.1238" fill="#ADD1B2" rx="19.8" ry="19.8" style="stroke:#181818;stroke-width:1.8;"/><path d="M234.6188,257.6707 Q231.0469,257.6707 228.9375,255.027 Q226.8563,252.3551 226.8563,246.8145 Q226.8563,242.1176 229.05,238.9676 Q231.2719,235.8176 235.0969,235.8176 Q235.9969,235.8176 236.9531,236.0707 Q237.7406,236.4082 238.2188,236.4082 Q238.6125,236.4082 238.7813,236.3238 Q238.9781,236.2395 239.7938,235.1707 L241.1719,241.8926 L239.5688,242.3707 Q238.7531,239.7551 237.6563,238.6863 Q236.5875,237.5895 234.8719,237.5895 Q232.6781,237.5895 231.3844,240.177 Q230.0906,242.7363 230.0906,246.6738 Q230.0906,251.0051 231.1875,253.3395 Q232.3125,255.6457 234.7594,255.6457 Q236.475,255.6457 237.7125,254.4082 Q238.95,253.1426 239.5406,250.4426 L241.1719,251.1738 Q240.4406,254.2395 238.6969,255.9551 Q236.9813,257.6707 234.6188,257.6707 Z " fill="#000000"/><text fill="#000000" font-family="sans-serif" font-size="21.6" font-style="italic" lengthAdjust="spacing" textLength="66.6" x="265.5" y="239.3086">&#171;final&#187;</text><text fill="#000000" font-family="sans-serif" font-size="25.2" lengthAdjust="spacing" textLength="75.6" x="261" y="271.923">&#26368;&#32456;&#31867;</text><line style="stroke:#181818;stroke-width:0.9;" x1="210.6" x2="340.2" y1="287.2477" y2="287.2477"/><line style="stroke:#181818;stroke-width:0.9;" x1="210.6" x2="340.2" y1="301.6477" y2="301.6477"/></g><!--SRC=[Iyv9B2vMUBvnjq9rBLTcNabgKLfYSgh2q_KxNsnS-AnlwTF-nI2PnAJYagB4v1A5PB3wPrrxWT9GNH2Xvvqxd-vh10dPs02LPfROsI4adyrfUBwx0oAPbfcNc0EM1000]--></g></svg>